<svg xmlns="http://www.w3.org/2000/svg" style="display:none">
  <!--
    Minimal outline icon set for the app shell (design-system/components.md: "Icons are
    Lucide (outline, 1.75 stroke)"). Hand-drawn placeholders in the same outline style and
    stroke width, standing in until the shell wires up the real Lucide sprite in a later pass.
  -->
  <symbol id="icon-home" viewBox="0 0 24 24" fill="none" stroke="currentColor" stroke-width="1.75" stroke-linecap="round" stroke-linejoin="round">
    <path d="M3 11.5 12 4l9 7.5" />
    <path d="M5.5 10v9a1 1 0 0 0 1 1H10v-6h4v6h3.5a1 1 0 0 0 1-1v-9" />
  </symbol>
  <symbol id="icon-mail" viewBox="0 0 24 24" fill="none" stroke="currentColor" stroke-width="1.75" stroke-linecap="round" stroke-linejoin="round">
    <rect x="3.5" y="5.5" width="17" height="13" rx="2" />
    <path d="m4 7 8 6 8-6" />
  </symbol>
  <symbol id="icon-circle-user" viewBox="0 0 24 24" fill="none" stroke="currentColor" stroke-width="1.75" stroke-linecap="round" stroke-linejoin="round">
    <circle cx="12" cy="12" r="8.5" />
    <circle cx="12" cy="10" r="2.5" />
    <path d="M6.8 18a5.5 5.5 0 0 1 10.4 0" />
  </symbol>
  <symbol id="icon-shield" viewBox="0 0 24 24" fill="none" stroke="currentColor" stroke-width="1.75" stroke-linecap="round" stroke-linejoin="round">
    <path d="M12 3.5 19 6v5.5c0 4.6-3 7.8-7 9-4-1.2-7-4.4-7-9V6z" />
  </symbol>
  <symbol id="icon-scroll-text" viewBox="0 0 24 24" fill="none" stroke="currentColor" stroke-width="1.75" stroke-linecap="round" stroke-linejoin="round">
    <path d="M6.5 4h9.5a2 2 0 0 1 2 2v11.5a2.5 2.5 0 0 1-2.5 2.5H8" />
    <path d="M6.5 4A2.5 2.5 0 0 0 4 6.5V17a3 3 0 0 0 3 3" />
    <path d="M9 8h6M9 11.5h6" />
  </symbol>
  <symbol id="icon-users" viewBox="0 0 24 24" fill="none" stroke="currentColor" stroke-width="1.75" stroke-linecap="round" stroke-linejoin="round">
    <circle cx="9" cy="8.5" r="3" />
    <path d="M3.5 19a5.5 5.5 0 0 1 11 0" />
    <path d="M15.5 6.2a3 3 0 0 1 0 5.8" />
    <path d="M17 13.5a5.5 5.5 0 0 1 3.5 5.5" />
  </symbol>
  <symbol id="icon-settings" viewBox="0 0 24 24" fill="none" stroke="currentColor" stroke-width="1.75" stroke-linecap="round" stroke-linejoin="round">
    <circle cx="12" cy="12" r="3" />
    <path d="M12 3.5v2.2M12 18.3v2.2M20.5 12h-2.2M5.7 12H3.5M17.8 6.2l-1.6 1.6M7.8 16.2l-1.6 1.6M17.8 17.8l-1.6-1.6M7.8 7.8 6.2 6.2" />
  </symbol>
  <symbol id="icon-plug" viewBox="0 0 24 24" fill="none" stroke="currentColor" stroke-width="1.75" stroke-linecap="round" stroke-linejoin="round">
    <path d="M8 3.5v5M16 3.5v5M6 8.5h12v3a6 6 0 0 1-12 0z" />
    <path d="M12 17.5V21" />
  </symbol>
  <symbol id="icon-book" viewBox="0 0 24 24" fill="none" stroke="currentColor" stroke-width="1.75" stroke-linecap="round" stroke-linejoin="round">
    <path d="M4.5 5.5A2 2 0 0 1 6.5 4H19v14.5H6.5a2 2 0 0 0-2 2Z" />
    <path d="M4.5 5.5v13a2 2 0 0 0 2 2H19" />
  </symbol>
  <symbol id="icon-layout-grid" viewBox="0 0 24 24" fill="none" stroke="currentColor" stroke-width="1.75" stroke-linecap="round" stroke-linejoin="round">
    <rect x="3.5" y="3.5" width="7.5" height="7.5" rx="1.2" />
    <rect x="13" y="3.5" width="7.5" height="7.5" rx="1.2" />
    <rect x="3.5" y="13" width="7.5" height="7.5" rx="1.2" />
    <rect x="13" y="13" width="7.5" height="7.5" rx="1.2" />
  </symbol>
  <symbol id="icon-ellipsis" viewBox="0 0 24 24" fill="none" stroke="currentColor" stroke-width="1.75" stroke-linecap="round" stroke-linejoin="round">
    <circle cx="5.5" cy="12" r="1.2" fill="currentColor" stroke="none" />
    <circle cx="12" cy="12" r="1.2" fill="currentColor" stroke="none" />
    <circle cx="18.5" cy="12" r="1.2" fill="currentColor" stroke="none" />
  </symbol>
  <symbol id="icon-user-cog" viewBox="0 0 24 24" fill="none" stroke="currentColor" stroke-width="1.75" stroke-linecap="round" stroke-linejoin="round">
    <circle cx="9.5" cy="8" r="3" />
    <path d="M3.5 19a6 6 0 0 1 9.3-5" />
    <circle cx="18" cy="15.5" r="2.2" />
    <path d="M18 12v1M18 18v1M15 15.5h1M20 15.5h1M15.9 13.4l.7.7M19.4 16.9l.7.7M20.1 13.4l-.7.7M16.6 16.9l-.7.7" />
  </symbol>
  <symbol id="icon-log-out" viewBox="0 0 24 24" fill="none" stroke="currentColor" stroke-width="1.75" stroke-linecap="round" stroke-linejoin="round">
    <path d="M9 20H5.5a2 2 0 0 1-2-2V6a2 2 0 0 1 2-2H9" />
    <path d="M16 16.5 20.5 12 16 7.5" />
    <path d="M20 12H9.5" />
  </symbol>
  <symbol id="icon-circle-check-big" viewBox="0 0 24 24" fill="none" stroke="currentColor" stroke-width="1.75" stroke-linecap="round" stroke-linejoin="round">
    <path d="M21 11.1V12a9 9 0 1 1-5.3-8.2" />
    <path d="m9 11 3 3 8-8" />
  </symbol>
  <symbol id="icon-ban" viewBox="0 0 24 24" fill="none" stroke="currentColor" stroke-width="1.75" stroke-linecap="round" stroke-linejoin="round">
    <circle cx="12" cy="12" r="8.5" />
    <path d="m6.2 17.8 11.6-11.6" />
  </symbol>
  <!-- S2.8 (intake.md L1-L11): Requests nav + leadership screens. -->
  <symbol id="icon-clipboard-list" viewBox="0 0 24 24" fill="none" stroke="currentColor" stroke-width="1.75" stroke-linecap="round" stroke-linejoin="round">
    <rect x="5" y="4.5" width="14" height="16" rx="2" />
    <rect x="9" y="3" width="6" height="3" rx="1" />
    <path d="M8.5 11h.01M8.5 14.5h.01M8.5 18h.01M11.5 11h4M11.5 14.5h4M11.5 18h4" />
  </symbol>
  <symbol id="icon-lock" viewBox="0 0 24 24" fill="none" stroke="currentColor" stroke-width="1.75" stroke-linecap="round" stroke-linejoin="round">
    <rect x="5" y="11" width="14" height="9" rx="2" />
    <path d="M8 11V7.5a4 4 0 0 1 8 0V11" />
  </symbol>
  <symbol id="icon-eye" viewBox="0 0 24 24" fill="none" stroke="currentColor" stroke-width="1.75" stroke-linecap="round" stroke-linejoin="round">
    <path d="M2.5 12S6 5.5 12 5.5 21.5 12 21.5 12 18 18.5 12 18.5 2.5 12 2.5 12Z" />
    <circle cx="12" cy="12" r="2.75" />
  </symbol>
  <symbol id="icon-triangle-alert" viewBox="0 0 24 24" fill="none" stroke="currentColor" stroke-width="1.75" stroke-linecap="round" stroke-linejoin="round">
    <path d="M12 4 21.5 20H2.5Z" />
    <path d="M12 10v4.5M12 17.2h.01" />
  </symbol>
  <symbol id="icon-phone-call" viewBox="0 0 24 24" fill="none" stroke="currentColor" stroke-width="1.75" stroke-linecap="round" stroke-linejoin="round">
    <path d="M5 4.5h3.5l1.5 4-2 1.5a11 11 0 0 0 6 6l1.5-2 4 1.5V19a1.5 1.5 0 0 1-1.6 1.5A15.5 15.5 0 0 1 3.5 6.1 1.5 1.5 0 0 1 5 4.5Z" />
  </symbol>
  <symbol id="icon-copy" viewBox="0 0 24 24" fill="none" stroke="currentColor" stroke-width="1.75" stroke-linecap="round" stroke-linejoin="round">
    <rect x="8.5" y="8.5" width="11" height="11" rx="1.5" />
    <path d="M5.5 15.5H4.7A1.7 1.7 0 0 1 3 13.8V4.7A1.7 1.7 0 0 1 4.7 3h9.1A1.7 1.7 0 0 1 15.5 4.7v.8" />
  </symbol>
  <!-- Step 2 fix round (visual QA / usability M1-M17): added icons the intake screens need
       that weren't in the placeholder set yet. Same hand-drawn outline style/stroke. -->
  <symbol id="icon-siren" viewBox="0 0 24 24" fill="none" stroke="currentColor" stroke-width="1.75" stroke-linecap="round" stroke-linejoin="round">
    <path d="M5 19v-6a7 7 0 0 1 14 0v6" />
    <path d="M5 19h14M12 3v2M4.2 8.2l1.4 1.4M19.8 8.2l-1.4 1.4" />
  </symbol>
  <symbol id="icon-hourglass" viewBox="0 0 24 24" fill="none" stroke="currentColor" stroke-width="1.75" stroke-linecap="round" stroke-linejoin="round">
    <path d="M6 3h12M6 21h12" />
    <path d="M7 3c0 5 4 6 5 6s5-1 5-6M7 21c0-5 4-6 5-6s5 1 5 6" />
  </symbol>
  <symbol id="icon-inbox" viewBox="0 0 24 24" fill="none" stroke="currentColor" stroke-width="1.75" stroke-linecap="round" stroke-linejoin="round">
    <path d="M3.5 12h5l1.5 3h4l1.5-3h5" />
    <path d="M5.5 5.5h13L21 12v6a1.5 1.5 0 0 1-1.5 1.5h-15A1.5 1.5 0 0 1 3 18v-6Z" />
  </symbol>
  <symbol id="icon-shield-check" viewBox="0 0 24 24" fill="none" stroke="currentColor" stroke-width="1.75" stroke-linecap="round" stroke-linejoin="round">
    <path d="M12 3.5 19 6v6c0 5-3.5 7.5-7 8.5-3.5-1-7-3.5-7-8.5V6Z" />
    <path d="m9 12 2 2 4-4" />
  </symbol>
  <symbol id="icon-circle-alert" viewBox="0 0 24 24" fill="none" stroke="currentColor" stroke-width="1.75" stroke-linecap="round" stroke-linejoin="round">
    <circle cx="12" cy="12" r="8.5" />
    <path d="M12 7.5v5.5M12 16.2h.01" />
  </symbol>
  <symbol id="icon-circle-check" viewBox="0 0 24 24" fill="none" stroke="currentColor" stroke-width="1.75" stroke-linecap="round" stroke-linejoin="round">
    <circle cx="12" cy="12" r="8.5" />
    <path d="m8.5 12.3 2.3 2.3 4.7-5" />
  </symbol>
  <symbol id="icon-circle-help" viewBox="0 0 24 24" fill="none" stroke="currentColor" stroke-width="1.75" stroke-linecap="round" stroke-linejoin="round">
    <circle cx="12" cy="12" r="8.5" />
    <path d="M9.6 9.3a2.5 2.5 0 1 1 3.8 2.1c-.9.6-1.4 1.1-1.4 2.1" />
    <path d="M12 16.7h.01" />
  </symbol>
  <symbol id="icon-phone" viewBox="0 0 24 24" fill="none" stroke="currentColor" stroke-width="1.75" stroke-linecap="round" stroke-linejoin="round">
    <path d="M5 4.5h3.5l1.5 4-2 1.5a11 11 0 0 0 5 5l1.5-2 4 1.5V18a1.5 1.5 0 0 1-1.6 1.5A15 15 0 0 1 3.5 6.1 1.5 1.5 0 0 1 5 4.5Z" />
  </symbol>
  <symbol id="icon-phone-incoming" viewBox="0 0 24 24" fill="none" stroke="currentColor" stroke-width="1.75" stroke-linecap="round" stroke-linejoin="round">
    <path d="M15 3.5h5.5V9M20.5 3.5 14 10" />
    <path d="M5 4.5h3.5l1.5 4-2 1.5a11 11 0 0 0 5 5l1.5-2 4 1.5V18a1.5 1.5 0 0 1-1.6 1.5A15 15 0 0 1 3.5 6.1 1.5 1.5 0 0 1 5 4.5Z" />
  </symbol>
  <symbol id="icon-chevron-right" viewBox="0 0 24 24" fill="none" stroke="currentColor" stroke-width="1.75" stroke-linecap="round" stroke-linejoin="round">
    <path d="m9 5 7 7-7 7" />
  </symbol>
  <symbol id="icon-info" viewBox="0 0 24 24" fill="none" stroke="currentColor" stroke-width="1.75" stroke-linecap="round" stroke-linejoin="round">
    <circle cx="12" cy="12" r="8.5" />
    <path d="M12 11v5.5M12 7.7h.01" />
  </symbol>
  <symbol id="icon-image-off" viewBox="0 0 24 24" fill="none" stroke="currentColor" stroke-width="1.75" stroke-linecap="round" stroke-linejoin="round">
    <path d="M3.5 3.5 20.5 20.5" />
    <path d="M20.5 6.5v11a1.5 1.5 0 0 1-1.5 1.5H6.5" />
    <path d="M4.5 4.5A1.5 1.5 0 0 0 3.5 6v11a1.5 1.5 0 0 0 1.5 1.5h1" />
    <circle cx="8.3" cy="9.3" r="1.3" />
  </symbol>
  <!-- FIX-F1 M3: R3/R4 choice-card icons (design-system/screens/intake.md R3/R4). -->
  <symbol id="icon-key-round" viewBox="0 0 24 24" fill="none" stroke="currentColor" stroke-width="1.75" stroke-linecap="round" stroke-linejoin="round">
    <circle cx="8" cy="15.5" r="4" />
    <path d="m10.8 12.7 8.7-8.7M17.5 6l2 2M14.7 8.8l1.8 1.8" />
  </symbol>
  <symbol id="icon-building" viewBox="0 0 24 24" fill="none" stroke="currentColor" stroke-width="1.75" stroke-linecap="round" stroke-linejoin="round">
    <rect x="5" y="3.5" width="10" height="17" rx="1" />
    <path d="M15 9.5h4a1 1 0 0 1 1 1V20h-5" />
    <path d="M8 7.5h1M11 7.5h1M8 11h1M11 11h1M8 14.5h1M11 14.5h1M9.5 20v-3h2v3" />
  </symbol>
  <symbol id="icon-building-2" viewBox="0 0 24 24" fill="none" stroke="currentColor" stroke-width="1.75" stroke-linecap="round" stroke-linejoin="round">
    <rect x="4" y="8" width="8" height="12" rx="1" />
    <rect x="12" y="3.5" width="8" height="16.5" rx="1" />
    <path d="M6.5 11h1M6.5 14h1M6.5 17h1M14.5 6.5h1M17.5 6.5h1M14.5 9.5h1M17.5 9.5h1M14.5 12.5h1M17.5 12.5h1" />
  </symbol>
  <symbol id="icon-caravan" viewBox="0 0 24 24" fill="none" stroke="currentColor" stroke-width="1.75" stroke-linecap="round" stroke-linejoin="round">
    <rect x="3" y="7" width="14" height="9" rx="1.5" />
    <path d="M17 10h2.5L21 12.5V16h-4" />
    <circle cx="7.5" cy="18" r="1.6" />
    <circle cx="16" cy="18" r="1.6" />
    <path d="M6.5 10.5h5" />
  </symbol>
  <symbol id="icon-dog" viewBox="0 0 24 24" fill="none" stroke="currentColor" stroke-width="1.75" stroke-linecap="round" stroke-linejoin="round">
    <path d="M5 9c0-2.5 1.8-4.5 4-4.5.9 0 1.7.3 2.4.9M12.4 5.4c.7-.6 1.5-.9 2.4-.9 2.2 0 4 2 4 4.5v6c0 2.8-2.2 5-5 5H9c-2.2 0-4-1.8-4-4v-2" />
    <path d="M5 9 3 8M19 9l2-1M9 12h.01M14 12h.01" />
    <path d="M9.5 15c.7.7 1.7 1 2.5 1s1.8-.3 2.5-1" />
  </symbol>
  <symbol id="icon-droplets" viewBox="0 0 24 24" fill="none" stroke="currentColor" stroke-width="1.75" stroke-linecap="round" stroke-linejoin="round">
    <path d="M13 3.5s5 5.8 5 9.5a5 5 0 0 1-10 0c0-1.5.7-3 1.7-4.5" />
    <path d="M8.5 15.5s2 2.2 2 3.8a2 2 0 1 1-4 0c0-1.1.8-2.2 2-3.8Z" />
  </symbol>
  <symbol id="icon-zap" viewBox="0 0 24 24" fill="none" stroke="currentColor" stroke-width="1.75" stroke-linecap="round" stroke-linejoin="round">
    <path d="M13 3 5 13.5h6L11 21l8-10.5h-6z" />
  </symbol>
  <symbol id="icon-bug" viewBox="0 0 24 24" fill="none" stroke="currentColor" stroke-width="1.75" stroke-linecap="round" stroke-linejoin="round">
    <rect x="8" y="9" width="8" height="10" rx="4" />
    <path d="M12 9V6.5M9.5 7 8 5.5M14.5 7 16 5.5M4.5 12h3.5M16 12h3.5M5 17l3-1.5M19 17l-3-1.5M5 8.5l2.7 2M18.9 8.5l-2.7 2" />
  </symbol>
  <symbol id="icon-circle-ellipsis" viewBox="0 0 24 24" fill="none" stroke="currentColor" stroke-width="1.75" stroke-linecap="round" stroke-linejoin="round">
    <circle cx="12" cy="12" r="8.5" />
    <path d="M8.3 12h.01M12 12h.01M15.7 12h.01" />
  </symbol>
  <symbol id="icon-file-x" viewBox="0 0 24 24" fill="none" stroke="currentColor" stroke-width="1.75" stroke-linecap="round" stroke-linejoin="round">
    <path d="M7 3.5h7l4 4V19a1.5 1.5 0 0 1-1.5 1.5h-9A1.5 1.5 0 0 1 6 19V5A1.5 1.5 0 0 1 7 3.5Z" />
    <path d="M14 3.5V8h4.2" />
    <path d="m9.8 13 4.4 4.4M14.2 13l-4.4 4.4" />
  </symbol>
  <!-- FIX-H M3: R2 category choice-card icons (design-system/screens/intake.md R2). -->
  <symbol id="icon-droplet" viewBox="0 0 24 24" fill="none" stroke="currentColor" stroke-width="1.75" stroke-linecap="round" stroke-linejoin="round">
    <path d="M12 3.5s6.5 7 6.5 11.5a6.5 6.5 0 0 1-13 0C5.5 10.5 12 3.5 12 3.5Z" />
  </symbol>
  <symbol id="icon-plug-zap" viewBox="0 0 24 24" fill="none" stroke="currentColor" stroke-width="1.75" stroke-linecap="round" stroke-linejoin="round">
    <path d="M7 3.5v4M11 3.5v4M5 7.5h8v3a5 5 0 0 1-5 5H9" />
    <path d="m16 12.5-3.5 4.5h3l-1.5 4.5 5-6h-3z" />
  </symbol>
  <symbol id="icon-door-closed" viewBox="0 0 24 24" fill="none" stroke="currentColor" stroke-width="1.75" stroke-linecap="round" stroke-linejoin="round">
    <rect x="5" y="3" width="14" height="18" rx="1" />
    <path d="M15 12h.01" />
  </symbol>
  <symbol id="icon-layers" viewBox="0 0 24 24" fill="none" stroke="currentColor" stroke-width="1.75" stroke-linecap="round" stroke-linejoin="round">
    <path d="m12 3.5 8.5 4.5-8.5 4.5-8.5-4.5Z" />
    <path d="m3.5 12.5 8.5 4.5 8.5-4.5" />
    <path d="m3.5 16.5 8.5 4.5 8.5-4.5" />
  </symbol>
  <symbol id="icon-accessibility" viewBox="0 0 24 24" fill="none" stroke="currentColor" stroke-width="1.75" stroke-linecap="round" stroke-linejoin="round">
    <circle cx="12" cy="5" r="1.6" fill="currentColor" stroke="none" />
    <path d="M6 9h12M12 9v5.5M9 20l3-5.5M15 20l-2-4" />
    <circle cx="16.5" cy="17.5" r="3.2" />
  </symbol>
  <symbol id="icon-paint-roller" viewBox="0 0 24 24" fill="none" stroke="currentColor" stroke-width="1.75" stroke-linecap="round" stroke-linejoin="round">
    <rect x="3.5" y="4" width="14" height="6" rx="1.5" />
    <path d="M8 10v4.5h4V17a2 2 0 0 0 2 2 2 2 0 0 0 2-2v-3" />
  </symbol>
  <symbol id="icon-trees" viewBox="0 0 24 24" fill="none" stroke="currentColor" stroke-width="1.75" stroke-linecap="round" stroke-linejoin="round">
    <path d="M8 3.5 3.5 11h9Z" />
    <path d="M8 11v5" />
    <path d="M16.5 7 12.5 13.5h8Z" />
    <path d="M16.5 13.5v4.5" />
  </symbol>
</svg>
